<?xml version="1.0" encoding="UTF-8"?>
<svg id="jrop_færdig" data-name="jrop færdig" xmlns="http://www.w3.org/2000/svg" xmlns:xlink="http://www.w3.org/1999/xlink" viewBox="0 0 527.36 502.09">
  <defs>
    <style>
      .cls-1 {
        fill: #fff;
      }

      .cls-2 {
        fill: #396d99;
      }

      .cls-3 {
        fill: #f1f2f2;
      }
    </style>
  </defs>
  <path class="cls-3" d="M267.8,356.58c-1.36,0-2.71-1.4-5.95-4.78-1-1.04-2.18-2.27-3.59-3.7-6.32-6.4-12.13-12.68-20.92-22.19l-5.71-6.17c-4.99-5.39-9.11-9.8-12.58-13.52-15.97-17.11-18.42-19.74-30.35-36.31-13.57-18.86-18.36-31.47-21.22-39.01l-.28-.75c-2.72-7.14-6.5-22.64-1.23-46.12,.17-.74,4.28-18.31,21.93-28.92,4.58-2.75,16.85-8.89,31.74-6.45,16.54,2.72,32.84,14.33,39.62,28.23,1.68,3.44,3.94,7.47,4.92,9.19,3.13-7.04,7.54-15.15,16.07-22.75,13.73-12.25,31.77-12.14,32.51-12.13,11.29,.16,21.96,4.41,31.72,12.63,6.01,5.06,13.97,14.13,17.78,28.6,3.65,13.86,.9,25.21-1.53,35.22-1.1,4.52-4.43,18.26-20.23,43.3-8.53,13.52-11.68,17.28-20.08,27.33-3.5,4.19-7.87,9.41-13.91,16.89-18.25,22.56-28.76,32.65-33.82,37.51-1.07,1.03-1.84,1.77-2.37,2.32-.93,.98-1.63,1.55-2.5,1.55h0Zm-55.11-207.46c-11.44,0-20.52,4.6-24.29,6.87-17.29,10.39-21.31,27.55-21.47,28.28-5.21,23.23-1.49,38.5,1.19,45.54l.28,.75c2.84,7.49,7.61,20.03,21.1,38.78,11.89,16.52,14.34,19.15,30.27,36.21,3.48,3.72,7.59,8.13,12.59,13.53l5.71,6.17c8.79,9.5,14.59,15.77,20.9,22.16,1.42,1.43,2.6,2.66,3.6,3.71,2.86,2.97,4.29,4.47,5.23,4.47h0c.44,0,.92-.34,1.78-1.24,.54-.57,1.32-1.32,2.4-2.36,5.04-4.84,15.53-14.9,33.73-37.41,6.05-7.48,10.42-12.7,13.92-16.9,8.37-10.01,11.5-13.76,20-27.22,15.72-24.9,19.02-38.52,20.11-43,2.4-9.9,5.12-21.11,1.53-34.73-3.75-14.21-11.56-23.12-17.46-28.09-3.57-3.01-14.43-12.16-31.09-12.39-.74-.02-18.38-.12-31.83,11.87-8.75,7.8-13.11,16.16-16.22,23.32l-.39,.91-.5-.86c-.03-.06-3.23-5.58-5.44-10.12-6.65-13.63-22.64-25.02-38.89-27.68-2.33-.38-4.6-.55-6.78-.55Z"/>
  <g>
    <g>
      <path class="cls-2" d="M306.23,164.54h0c-3.22-2.1-7.6-1.2-9.71,2l-8.67,13.1,12.78,6.05,7.62-11.51c2.12-3.2,1.21-7.54-2.01-9.64Z"/>
      <path class="cls-1" d="M282.37,200.29h0c3.21,2.13,7.58,1.27,9.73-1.91l8.78-13.02-12.72-6.16-7.72,11.44c-2.15,3.18-1.28,7.53,1.93,9.66Z"/>
    </g>
    <image width="333" height="342" transform="translate(255.05 133.92) scale(.24)" xlink:href="Logo sort1.png"/>
  </g>
  <g>
    <g>
      <path class="cls-2" d="M194.66,164.31h0c2.46-4.46,7.88-5.68,12.04-2.7l17.04,12.19-11.01,14.75-14.97-10.71c-4.16-2.98-5.56-9.07-3.1-13.53Z"/>
      <path class="cls-1" d="M241.42,197.48h0c-2.42,4.49-7.83,5.76-12.01,2.82l-17.13-12.03,10.88-14.87,15.05,10.57c4.19,2.94,5.63,9.02,3.21,13.51Z"/>
    </g>
    <image width="354" height="346" transform="translate(170.51 130.18) scale(.24)" xlink:href="Logo sort2.png"/>
  </g>
  <g>
    <g>
      <path class="cls-2" d="M341.02,198.69h0c-.96-2.31-3.63-3.44-5.94-2.5l-9.46,3.84,4.63,7.94,8.31-3.37c2.31-.94,3.42-3.6,2.46-5.91Z"/>
      <path class="cls-1" d="M315.09,209.09h0c.94,2.32,3.6,3.47,5.92,2.55l9.49-3.75-4.56-7.98-8.34,3.3c-2.32,.92-3.45,3.57-2.51,5.89Z"/>
    </g>
    <image width="329" height="318" transform="translate(291.79 161.97) scale(.24)" xlink:href="Logo sort3.png"/>
  </g>
  <g>
    <g>
      <path class="cls-2" d="M183.63,232.12h0c-.17-4.76,3.06-8.79,7.18-8.95l16.85-.66-1.43,17.39-14.8,.58c-4.12,.16-7.62-3.6-7.79-8.36Z"/>
      <path class="cls-1" d="M229.74,230.1h0c.21,4.76-2.99,8.82-7.11,9.02l-16.84,.84,1.3-17.4,14.8-.73c4.12-.2,7.65,3.52,7.86,8.28Z"/>
    </g>
    <image width="350" height="317" transform="translate(157.3 188.92) scale(.24)" xlink:href="Logo sort4.png"/>
  </g>
  <g>
    <g>
      <path class="cls-2" d="M323.41,280.04h0c1.32-2.12,.68-4.95-1.43-6.29l-8.63-5.46-3.76,8.38,7.58,4.8c2.11,1.33,4.91,.69,6.24-1.43Z"/>
      <path class="cls-1" d="M299.86,265h0c-1.34,2.11-.72,4.95,1.37,6.3l8.58,5.54,3.84-8.35-7.54-4.86c-2.1-1.35-4.91-.73-6.25,1.38Z"/>
    </g>
    <image width="327" height="320" transform="translate(277.2 234.46) scale(.24)" xlink:href="Logo sort5.png"/>
  </g>
  <g>
    <g>
      <path class="cls-2" d="M214.56,284.52h0c.86,2.09,3.28,3.12,5.38,2.27l8.57-3.46-4.18-7.2-7.53,3.04c-2.09,.85-3.1,3.25-2.24,5.35Z"/>
      <path class="cls-1" d="M238.06,275.14h0c-.85-2.1-3.26-3.14-5.36-2.32l-8.6,3.39,4.12,7.23,7.56-2.98c2.1-.83,3.13-3.22,2.29-5.33Z"/>
    </g>
    <image width="326" height="315" transform="translate(184.4 245.42) scale(.24)" xlink:href="Logo sort6.png"/>
  </g>
  <ellipse class="cls-1" cx="273.5" cy="232.74" rx="11.05" ry="16.34"/>
  <path class="cls-1" d="M272.26,267.17c-.46,1.01-.89,2.02-1.31,3.04-13.23-25-18.65-49.7-15.36-65.12-6.91,14.81-8.71,39.75-3.61,66.91,5.99,31.92,19.76,57.5,33.92,65.88l5.63-6.05c-5.09-10.53-8.07-23.23-8.07-36.93,0-29.82,14.1-54.99,33.42-63.06,1.05-.58,2.1-1.1,3.15-1.55-16.05-3.24-36.52,12.13-47.78,36.88Z"/>
</svg>