<?xml version="1.0" encoding="UTF-8"?>
<svg id="arm_højre" data-name="arm højre" xmlns="http://www.w3.org/2000/svg" viewBox="0 0 445.79 386.04">
  <path d="M231.37,307.38h-.48l-.13-.09c-.85-.6-84.75-60.56-107.28-103.3l-5.03-9.67c-4.05-9.35-6.1-19.21-6.1-29.34,0-38.39,29.07-69.62,64.8-69.62,21.78,0,41.9,11.63,53.97,31.16,12.07-19.53,32.19-31.16,53.97-31.16,35.73,0,64.8,31.23,64.8,69.62,0,10.13-2.05,19.99-6.08,29.31l-5.04,9.69c-22.52,42.74-106.43,102.7-107.28,103.3l-.13,.09Zm-54.21-211.02c-35.18,0-63.8,30.78-63.8,68.62,0,9.99,2.02,19.72,6,28.91l5.01,9.63c21.86,41.49,102.06,99.43,106.76,102.8,4.7-3.37,84.9-61.32,106.76-102.8l5.03-9.66c3.97-9.16,5.98-18.89,5.98-28.88,0-37.84-28.62-68.62-63.8-68.62-21.69,0-41.7,11.73-53.54,31.38l-.43,.71-.43-.71c-11.84-19.65-31.86-31.38-53.54-31.38Z" style="fill: #fff;"/>
  <path d="M255.64,214.13c-.62,.92-1.2,1.86-1.77,2.79-9.07-26.8-10.47-52.04-4.76-66.74-9.19,13.52-14.95,37.85-14.25,65.48,.82,32.46,10.32,59.92,22.97,70.45l6.52-5.07c-3.34-11.21-4.26-24.22-2.07-37.74,4.76-29.44,22.7-52.04,43.06-56.92,1.13-.4,2.25-.75,3.36-1.03-15.32-5.76-37.99,6.14-53.05,28.78Z" style="fill: #fff;"/>
  <path d="M206.45,214.13c.62,.92,1.2,1.86,1.77,2.79,9.07-26.8,10.47-52.04,4.76-66.74,9.19,13.52,14.95,37.85,14.25,65.48-.82,32.46-10.32,59.92-22.97,70.45l-6.52-5.07c3.34-11.21,4.26-24.22,2.07-37.74-4.76-29.44-22.7-52.04-43.06-56.92-1.13-.4-2.25-.75-3.36-1.03,15.32-5.76,37.99,6.14,53.05,28.78Z" style="fill: #fff;"/>
  <path d="M263.93,90.67l-1.8,.83-4.61-2.14-.64,1.04,1.34,2.91-1.56,.72-3.59-7.78,1.56-.72,1.71,3.71c.23-.62,.46-1.23,.7-1.81l1.43-3.67,1.77-.82c-.92,2.36-1.59,4.05-2,5.06l5.69,2.67Z" style="fill: #fff;"/>
  <path d="M265.73,86.65l.91,3.3-1.65,.46-2.29-8.25,2.85-.79c1.3-.36,2.32-.43,3.06-.2,.74,.23,1.22,.74,1.44,1.55,.28,1.03-.17,1.94-1.35,2.74l3.86,2.86-1.88,.52-3.33-2.63-1.63,.45Zm-.31-1.12l1.15-.32c.77-.21,1.29-.48,1.58-.81,.28-.33,.36-.72,.23-1.18-.13-.47-.41-.75-.84-.85-.43-.1-1.02-.05-1.77,.16l-1.09,.3,.75,2.7Z" style="fill: #fff;"/>
  <path d="M282.56,82.86c.15,1.39-.16,2.51-.93,3.37-.77,.86-1.93,1.37-3.48,1.53-1.57,.17-2.82-.09-3.75-.76-.92-.67-1.46-1.71-1.61-3.12-.15-1.41,.16-2.53,.93-3.37,.77-.84,1.94-1.35,3.51-1.51,1.55-.16,2.79,.09,3.71,.77,.93,.68,1.46,1.71,1.61,3.1Zm-7.95,.84c.11,1.05,.45,1.82,1.03,2.3,.58,.49,1.37,.68,2.39,.57,1.01-.11,1.75-.46,2.21-1.05,.46-.59,.63-1.42,.52-2.48-.11-1.04-.45-1.81-1.02-2.3-.57-.49-1.36-.68-2.37-.57-1.02,.11-1.76,.46-2.23,1.05-.46,.59-.64,1.42-.53,2.46Z" style="fill: #fff;"/>
  <path d="M292.17,81.56c-.04,.89-.43,1.56-1.17,2.01-.74,.44-1.77,.64-3.09,.58l-1.09-.05-.15,3.2-1.71-.08,.39-8.56,3.01,.14c1.31,.06,2.28,.32,2.91,.79,.63,.47,.93,1.12,.89,1.98Zm-5.29,1.36l.91,.04c.88,.04,1.53-.06,1.95-.29,.42-.23,.64-.61,.67-1.14,.02-.49-.14-.87-.5-1.13-.36-.26-.92-.41-1.7-.44l-1.19-.05-.14,3.01Z" style="fill: #fff;"/>
  <path d="M297.25,85.92c.12-.5,.36-.9,.75-1.2,.38-.3,1.01-.55,1.87-.73-.35-.52-.57-.95-.66-1.28s-.11-.65-.03-.96c.13-.58,.49-.98,1.07-1.2,.58-.22,1.3-.23,2.15-.04,.82,.19,1.43,.5,1.83,.93,.4,.43,.53,.93,.4,1.48-.1,.43-.35,.79-.74,1.07-.4,.28-1,.51-1.82,.7l1.98,2.46c.47-.32,.92-.85,1.36-1.58l1.69,.39c-.57,1.01-1.3,1.77-2.17,2.28l1.72,2.15-2.12-.49-.85-1.07c-.55,.2-1.11,.32-1.68,.36-.57,.03-1.19-.02-1.84-.17-1.07-.25-1.86-.65-2.38-1.2-.51-.55-.69-1.19-.52-1.91Zm3.25,1.98c.85,.2,1.63,.16,2.33-.11l-2.18-2.77c-.55,.15-.95,.31-1.19,.49-.24,.18-.39,.42-.46,.71-.09,.37,0,.71,.28,1.02,.27,.31,.68,.53,1.22,.65Zm.23-5.75c-.05,.24-.03,.48,.08,.73,.11,.25,.27,.53,.5,.83,.58-.12,1-.26,1.26-.43,.26-.16,.42-.38,.48-.64,.06-.25,0-.47-.17-.66-.17-.2-.42-.33-.76-.41-.37-.08-.68-.07-.93,.03-.25,.1-.41,.29-.47,.54Z" style="fill: #fff;"/>
  <path d="M315.34,93.8l.21-7.77-.05-.02c-.37,1-.74,1.92-1.13,2.77l-1.73,3.79-1.42-.65,3.56-7.79,2.2,1-.18,7.41,.04,.02,5.56-4.95,2.2,1.01-3.56,7.79-1.5-.69,1.76-3.85c.18-.39,.42-.89,.73-1.5,.31-.61,.5-.98,.58-1.1l-.05-.02-5.83,5.19-1.38-.63Z" style="fill: #fff;"/>
  <path d="M328.09,101.01l-4.98-3.22,4.65-7.19,4.98,3.22-.64,.99-3.54-2.29-1.27,1.96,3.32,2.14-.64,.98-3.32-2.14-1.46,2.26,3.54,2.29-.65,1Z" style="fill: #fff;"/>
  <path d="M339.09,104.26c-.9,1.09-1.97,1.61-3.18,1.57-1.22-.04-2.52-.64-3.91-1.79l-2.25-1.88,5.48-6.58,2.49,2.07c1.28,1.07,2.04,2.18,2.29,3.34,.24,1.16-.06,2.25-.92,3.27Zm-1.42-1.12c1.31-1.58,1.07-3.11-.74-4.62l-1.14-.95-3.98,4.78,.94,.78c1.94,1.61,3.58,1.62,4.92,0Z" style="fill: #fff;"/>
  <path d="M337.66,109.14l6.15-5.97,1.19,1.23-6.15,5.97-1.19-1.23Z" style="fill: #fff;"/>
  <path d="M349.3,111.11c-.61-.77-1.31-1.21-2.11-1.3-.8-.09-1.59,.17-2.38,.79-.83,.65-1.29,1.35-1.37,2.11-.09,.76,.18,1.54,.82,2.35,.27,.35,.57,.67,.88,.95,.31,.28,.65,.57,1.02,.85l-.95,.74c-.71-.49-1.38-1.14-2.02-1.96-.95-1.21-1.37-2.37-1.28-3.48,.09-1.12,.69-2.11,1.8-2.98,.7-.55,1.44-.87,2.21-.97,.77-.1,1.53,.04,2.28,.42,.75,.38,1.43,.96,2.06,1.76,.66,.84,1.13,1.73,1.4,2.67l-1.3,.23c-.11-.36-.25-.73-.41-1.11-.16-.37-.38-.73-.65-1.07Z" style="fill: #fff;"/>
  <path d="M346.02,119.52l7.3-4.48,.9,1.46-7.3,4.48-.9-1.46Z" style="fill: #fff;"/>
  <path d="M351.76,131.09l-.83-1.93,4.22-7.44-.02-.05-.33,.18c-.64,.35-1.24,.64-1.79,.88l-4.09,1.76-.62-1.43,7.87-3.4,.82,1.91-4.2,7.41,.02,.04c.08-.04,.37-.19,.88-.44,.51-.25,.91-.44,1.2-.56l4.12-1.78,.62,1.44-7.86,3.4Z" style="fill: #fff;"/>
  <g>
    <g>
      <path d="M276.57,153.2h0c-4.3-2.04-9.28-.67-11.06,3.05l-7.28,15.21,16.53,5.57,6.4-13.36c1.78-3.72-.29-8.43-4.59-10.47Z" style="fill: #396d99;"/>
      <path d="M257.54,171.75l7.52-15.72c1.9-3.98,7.16-5.45,11.72-3.29h0c2.38,1.13,4.22,3.11,5.05,5.43,.69,1.94,.61,3.96-.22,5.7l-6.59,13.76-17.49-5.89Zm8.43-15.29l-7.04,14.7,15.58,5.25,6.21-12.96c.72-1.5,.78-3.25,.18-4.93-.74-2.08-2.39-3.85-4.53-4.86h0c-1.29-.61-2.64-.9-3.94-.9-2.79,0-5.32,1.34-6.46,3.72Z" style="fill: #fff;"/>
    </g>
    <g>
      <path d="M256.46,194.74h0c4.29,2.07,9.28,.74,11.1-2.96l7.44-15.14-16.49-5.7-6.53,13.3c-1.82,3.7,.2,8.42,4.49,10.49Z" style="fill: #fff;"/>
      <path d="M256.24,195.19c-2.38-1.15-4.2-3.14-5-5.47-.67-1.94-.57-3.96,.28-5.69l6.73-13.7,17.45,6.03-7.68,15.65c-1.32,2.7-4.2,4.22-7.33,4.22-1.46,0-2.98-.33-4.43-1.03Zm2.51-23.62l-6.34,12.9c-.73,1.49-.81,3.24-.23,4.93,.72,2.08,2.35,3.86,4.49,4.89h0c4.05,1.96,8.73,.73,10.43-2.73l7.19-14.63-15.54-5.37Z" style="fill: #fff;"/>
    </g>
  </g>
  <rect x="264.52" y="155.67" width="3.29" height="13.3" rx="1.05" ry="1.05" transform="translate(92.9 -96.86) rotate(24.86)" style="fill: #fff;"/>
  <g>
    <g>
      <g>
        <path d="M184.17,152.27h0c4.3-2.04,9.28-.67,11.06,3.05l7.28,15.21-16.53,5.57-6.4-13.36c-1.78-3.72,.29-8.43,4.59-10.47Z" style="fill: #396d99;"/>
        <path d="M185.72,176.71l-6.59-13.76c-.83-1.74-.91-3.76-.22-5.7,.82-2.32,2.66-4.3,5.05-5.43h0c4.56-2.16,9.82-.69,11.72,3.29l7.52,15.72-17.49,5.89Zm2.6-24.9c-1.3,0-2.65,.29-3.94,.9h0c-2.15,1.02-3.8,2.79-4.53,4.86-.6,1.69-.53,3.44,.18,4.93l6.21,12.96,15.58-5.25-7.04-14.7c-1.14-2.37-3.67-3.72-6.46-3.72Z" style="fill: #fff;"/>
      </g>
      <g>
        <path d="M204.29,193.81h0c-4.29,2.07-9.28,.74-11.1-2.96l-7.44-15.14,16.49-5.7,6.53,13.3c1.82,3.7-.2,8.42-4.49,10.49Z" style="fill: #fff;"/>
        <path d="M200.08,195.29c-3.14,0-6.01-1.52-7.33-4.22l-7.68-15.65,17.45-6.03,6.73,13.7c.85,1.73,.95,3.75,.28,5.69-.8,2.33-2.63,4.32-5,5.47-1.45,.7-2.97,1.03-4.43,1.03Zm-13.62-19.29l7.19,14.63c1.7,3.46,6.38,4.69,10.43,2.73h0c2.14-1.03,3.77-2.82,4.49-4.89,.58-1.69,.5-3.44-.23-4.93l-6.34-12.9-15.54,5.37Z" style="fill: #fff;"/>
      </g>
    </g>
    <rect x="192.51" y="154.78" width="3.29" height="13.3" rx="1.05" ry="1.05" transform="translate(438.19 226.27) rotate(155.14)" style="fill: #fff;"/>
  </g>
</svg>